# xmcd
#
# Track frame offsets: 
#        182
#        22045
#        42282
#        62985
#        85612
#        105540
#        130615
#        149292
#        170997
#        187365
#        211145
#        233302
#
# Disc length: 3357 seconds
#
# Revision: 4
# Processed by: cddbd v1.5.2PL0 Copyright (c) Steve Scherf et al.
# Submitted via: ExactAudioCopy v0.99pb5
#
DISCID=a50d1b0c
DTITLE=Rory GALLAGHER - Defender
DYEAR=1987
DGENRE=Blues
TTITLE0=Kickback City
TTITLE1=Loanshark Blues
TTITLE2=Continental Op
TTITLE3=I Ain't No Saint
TTITLE4=Failsafe Day
TTITLE5=Road To Hell
TTITLE6=Doing Time
TTITLE7=Smear Campaign
TTITLE8=Don't Start Me Talkin'
TTITLE9=Seven Days
TTITLE10=Seems To Me
TTITLE11=No Peace For The Wicked
EXTD=YEAR: 1987
EXTT0=
EXTT1=
EXTT2=
EXTT3=
EXTT4=
EXTT5=
EXTT6=
EXTT7=
EXTT8=
EXTT9=
EXTT10=
EXTT11=
PLAYORDER=
